<?xml version="1.0" encoding="UTF-8"?>
<svg version="1.1" xmlns="http://www.w3.org/2000/svg" width="512" height="512">
<path d="M0 0 C1.88850655 2.43678265 3 3.89413052 3 7 C4.15178741 6.99333817 4.15178741 6.99333817 5.32684326 6.98654175 C12.56593274 6.94645471 19.80496833 6.91601038 27.04413986 6.89637566 C30.7658029 6.88594189 34.48737416 6.87179018 38.20898438 6.84912109 C41.80106762 6.8273781 45.39306263 6.81542831 48.9852066 6.81024551 C50.35512938 6.80655236 51.72504738 6.79934055 53.09493256 6.78853989 C55.01473779 6.77400651 56.93463196 6.77318292 58.85449219 6.77294922 C59.94703308 6.768508 61.03957397 6.76406677 62.16522217 6.75949097 C65.00459121 7.00038953 66.62536644 7.4648086 69 9 C71.30567313 12.22794238 71.32369432 15.11566819 71 19 C70.1520832 21.54375041 69.55949519 22.63828852 67.30596924 24.09518433 C64.36902142 25.24758323 62.0096286 25.23987654 58.85449219 25.22705078 C57.61350769 25.22689972 56.37252319 25.22674866 55.09393311 25.22659302 C53.7449121 25.21638061 52.39589273 25.20594864 51.046875 25.1953125 C49.6625387 25.19158049 48.27819975 25.18873441 46.89385986 25.18673706 C43.2573309 25.17911534 39.62096269 25.15947955 35.98449707 25.1373291 C32.27093683 25.11683909 28.55735052 25.10772861 24.84375 25.09765625 C17.56241836 25.07623213 10.28125222 25.04106207 3 25 C3 30.28 3 35.56 3 41 C4.3509375 40.95359375 5.701875 40.9071875 7.09375 40.859375 C8.89581106 40.82183206 10.69789625 40.78543462 12.5 40.75 C13.386875 40.71648437 14.27375 40.68296875 15.1875 40.6484375 C22.14063517 40.54618551 27.41780186 41.85490323 32.72070312 46.51074219 C34 48 34 48 34 50 C58.75 49.67 83.5 49.34 109 49 C111.31 44.71 113.62 40.42 116 36 C128.00843705 20.20298562 144.25955896 9.86597991 164 7 C182.2430442 5.1249981 199.93273655 9.29360536 214.75 20.375 C224.72214499 28.61911987 231.20667778 37.41335556 237 49 C261.75 49.33 286.5 49.66 312 50 C312.66 48.68 313.32 47.36 314 46 C318.51223937 41.84399006 321.75301006 40.86380135 327.765625 40.90234375 C328.65507812 40.90556641 329.54453125 40.90878906 330.4609375 40.91210938 C331.84152344 40.92467773 331.84152344 40.92467773 333.25 40.9375 C334.65378906 40.94426758 334.65378906 40.94426758 336.0859375 40.95117188 C338.39065247 40.96293062 340.69533446 40.98086532 343 41 C343 35.72 343 30.44 343 25 C341.1427832 25.01047363 339.28556641 25.02094727 337.37207031 25.03173828 C331.23334738 25.06399861 325.09464452 25.08697418 318.95586014 25.10362434 C315.2341971 25.11405811 311.51262584 25.12820982 307.79101562 25.15087891 C304.19893238 25.1726219 300.60693737 25.18457169 297.0147934 25.18975449 C295.64487062 25.19344764 294.27495262 25.20065945 292.90506744 25.21146011 C290.98526221 25.22599349 289.06536804 25.22681708 287.14550781 25.22705078 C286.05296692 25.231492 284.96042603 25.23593323 283.83477783 25.24050903 C280.99540879 24.99961047 279.37463356 24.5351914 277 23 C274.69432687 19.77205762 274.67630568 16.88433181 275 13 C275.8479168 10.45624959 276.44050481 9.36171148 278.69403076 7.90481567 C281.63097858 6.75241677 283.9903714 6.76012346 287.14550781 6.77294922 C289.00698456 6.77317581 289.00698456 6.77317581 290.90606689 6.77340698 C292.2550879 6.78361939 293.60410727 6.79405136 294.953125 6.8046875 C296.3374613 6.80841951 297.72180025 6.81126559 299.10614014 6.81326294 C302.7426691 6.82088466 306.37903731 6.84052045 310.01550293 6.8626709 C313.72906317 6.88316091 317.44264948 6.89227139 321.15625 6.90234375 C328.43757314 6.92376785 335.71876401 6.95788599 343 7 C343.27457031 6.05125 343.54914063 5.1025 343.83203125 4.125 C345 1 345 1 347.6875 -1 C351.91754931 -2.27699602 353.97849811 -1.74518007 358 0 C359.9375 1.9375 359.9375 1.9375 361 4 C361 4.99 361 5.98 361 7 C362.16724861 6.98334541 362.16724861 6.98334541 363.358078 6.96635437 C370.69982051 6.86607335 378.04122991 6.7899959 385.38347912 6.74093914 C389.1580501 6.71487018 392.93205414 6.67952371 396.70629883 6.62280273 C400.35030481 6.56838319 403.99376631 6.53855914 407.63814735 6.52561378 C409.02685427 6.51639143 410.41553215 6.49838147 411.80400658 6.47134972 C413.75209744 6.43493929 415.70073891 6.43295661 417.64916992 6.43237305 C418.7572551 6.42126999 419.86534027 6.41016693 421.00700378 6.39872742 C424.96834772 7.19453447 426.46461343 8.93396581 429 12 C429.6640625 14.0625 429.6640625 14.0625 429.625 16 C429.63789062 16.639375 429.65078125 17.27875 429.6640625 17.9375 C428.60499208 21.22684813 426.61054477 22.79981462 424 25 C421.00700378 25.60127258 421.00700378 25.60127258 417.64916992 25.56762695 C416.3882402 25.5672493 415.12731049 25.56687164 413.82817078 25.56648254 C412.46225994 25.54095324 411.09635931 25.51487333 409.73046875 25.48828125 C408.32515218 25.47894859 406.91981928 25.47183461 405.51448059 25.46684265 C401.82661541 25.44780772 398.13974449 25.39873971 394.45227051 25.34332275 C390.68511402 25.29205304 386.91779589 25.2693123 383.15039062 25.24414062 C375.76642264 25.19061499 368.38347764 25.10271071 361 25 C361 30.28 361 35.56 361 41 C362.423125 40.95359375 363.84625 40.9071875 365.3125 40.859375 C367.20831221 40.82183416 369.10414729 40.7854365 371 40.75 C371.93457031 40.71648437 372.86914062 40.68296875 373.83203125 40.6484375 C380.1158984 40.56055125 384.91215892 41.13768932 390 45 C395.06538151 50.75169189 395.73311563 56.19662431 395.62890625 63.6328125 C395.63131821 64.62828094 395.63373016 65.62374939 395.63621521 66.64938354 C395.63524054 68.74204515 395.62193844 70.83473377 395.59692383 72.92724609 C395.56252193 76.12296258 395.57630938 79.31592432 395.59570312 82.51171875 C395.58880638 84.55209505 395.57913555 86.59246425 395.56640625 88.6328125 C395.57136612 89.5829422 395.57632599 90.5330719 395.58143616 91.51199341 C395.48120491 97.1745969 394.81258918 100.52843939 391 105 C386.45525065 109.00370776 384.11047567 110.12290687 378.10083008 110.17700195 C376.86226761 110.18983719 375.62370514 110.20267242 374.34761047 110.21589661 C372.9882548 110.22406609 371.6288946 110.23150942 370.26953125 110.23828125 C369.58505102 110.24235678 368.90057079 110.2464323 368.19534874 110.25063133 C364.56928179 110.2714979 360.94325269 110.28579447 357.31713867 110.29516602 C353.58243371 110.30620465 349.84832884 110.3405723 346.11383533 110.38033772 C343.23378949 110.40656864 340.35388486 110.41486374 337.47373009 110.41844749 C336.09788672 110.42330037 334.7220491 110.4348773 333.34632301 110.45348549 C325.65671985 110.55099237 320.34244693 110.50848637 314 106 C309.08758481 106 304.72405271 108.23739046 300.26953125 110.16015625 C298 111 298 111 295 111 C295.21725235 111.68267944 295.4345047 112.36535889 295.65834045 113.06872559 C316.14376048 177.44833745 316.14376048 177.44833745 324.66259766 204.87744141 C325.25288555 206.77768298 325.84321736 208.67791092 326.43359375 210.578125 C326.72204163 211.50680389 327.0104895 212.43548279 327.30767822 213.39230347 C329.18257451 219.41462858 331.08993324 225.42587665 333.01672363 231.43179321 C334.34726787 235.58318533 335.66719723 239.73791652 336.98614502 243.89300537 C337.61130412 245.85254846 338.24148676 247.81049728 338.87713623 249.7666626 C339.75282636 252.46284322 340.61057983 255.1641549 341.46484375 257.8671875 C341.72338638 258.64729187 341.98192902 259.42739624 342.24830627 260.23114014 C344.3233506 266.90022251 345.15304307 273.60492874 342.875 280.3125 C338.86934578 286.05393771 334.73144377 288.47628285 328 290 C324.86918789 290.29099607 321.76775548 290.32505094 318.625 290.3125 C317.82578125 290.32861328 317.0265625 290.34472656 316.203125 290.36132812 C309.18427942 290.3670068 302.84936738 289.44794606 297.40576172 284.77124023 C294.85050473 281.82779371 293.66530561 279.50291981 292.296875 275.8671875 C292.05459167 275.23191132 291.81230835 274.59663513 291.56268311 273.94210815 C290.69080636 271.63427552 289.8442959 269.31806354 289 267 C288.65751221 266.06788696 288.31502441 265.13577393 287.9621582 264.17541504 C285.4821781 257.41905551 283.03616018 250.6507326 280.60021973 243.87838745 C278.28093453 237.43115832 275.95302045 230.98704779 273.625 224.54296875 C273.38936592 223.89047968 273.15373184 223.23799061 272.91095734 222.56572914 C268.07318474 209.1715248 263.17110523 195.80130651 258.25 182.4375 C248.28802951 155.36519895 248.28802951 155.36519895 244.375 144.5625 C244.01438477 143.5737085 243.65376953 142.58491699 243.28222656 141.56616211 C242.96995117 140.69999268 242.65767578 139.83382324 242.3359375 138.94140625 C242.07345215 138.21638916 241.8109668 137.49137207 241.54052734 136.74438477 C241 135 241 135 241 133 C223.56915714 137.00406767 223.56915714 137.00406767 210.203125 147.671875 C207.91405801 151.95207903 206.3254539 156.33805871 205 161 C206.2065625 160.95359375 207.413125 160.9071875 208.65625 160.859375 C210.27080836 160.82182713 211.88539378 160.78543023 213.5 160.75 C214.29148437 160.71648437 215.08296875 160.68296875 215.8984375 160.6484375 C223.11773348 160.53008839 227.69404771 162.92416949 233.6875 166.6875 C240.51847661 173.51847661 242.11232702 181.02417652 242.16113281 190.40136719 C242.16609772 191.12891205 242.17106262 191.85645691 242.17617798 192.60604858 C242.19073213 195.00300051 242.19759077 197.39988622 242.203125 199.796875 C242.20888259 201.47210693 242.21464024 203.14733887 242.22039795 204.8225708 C242.23088917 208.33288885 242.23674392 211.84318412 242.24023438 215.35351562 C242.24571109 219.83326724 242.26972939 224.31271371 242.29820633 228.79236984 C242.31690809 232.25324357 242.32204233 235.71404493 242.32357025 239.1749649 C242.32658099 240.82544877 242.33455566 242.47593184 242.34775543 244.12636566 C242.50175048 264.86337472 242.50175048 264.86337472 235.4375 272.8125 C234.83808594 273.52019531 234.23867188 274.22789062 233.62109375 274.95703125 C226.93010941 280.17220981 219.50620202 281.59696999 211.2109375 281.51757812 C209.82832733 281.52809204 209.82832733 281.52809204 208.41778564 281.53881836 C205.40320753 281.55627016 202.38958588 281.54482131 199.375 281.53125 C197.26090314 281.53394859 195.14680749 281.53783407 193.03271484 281.54284668 C188.61478794 281.54872439 184.19718584 281.54023445 179.77929688 281.52148438 C174.13717794 281.49869616 168.4958203 281.51182849 162.85372925 281.53577423 C158.49204854 281.55027887 154.13054615 281.54560483 149.76885986 281.53526306 C147.68939116 281.53260867 145.60990587 281.53581984 143.53045654 281.54518127 C140.61622685 281.55542397 137.70320316 281.53973841 134.7890625 281.51757812 C133.94305481 281.52567505 133.09704712 281.53377197 132.22540283 281.54211426 C124.90548257 281.43981185 118.20545378 279.49843864 112.37890625 274.95703125 C111.77949219 274.24933594 111.18007812 273.54164063 110.5625 272.8125 C109.94503906 272.11769531 109.32757813 271.42289062 108.69140625 270.70703125 C103.03805612 261.65905979 103.55757079 252.06945919 103.6015625 241.8125 C103.59953778 240.14298374 103.59662304 238.47346834 103.59286499 236.80395508 C103.58846034 233.3174593 103.59481238 229.83119525 103.60888672 226.34472656 C103.62597758 221.89642384 103.61612636 217.44866431 103.59816933 213.00038147 C103.58728098 209.55664038 103.59080088 206.11302611 103.5985527 202.66928101 C103.60054078 201.02997776 103.59814489 199.39066266 103.59111404 197.75137329 C103.55356707 186.53892985 103.66582892 175.56863625 112 167 C116.76700874 163.39908929 121.1446494 160.85918191 127.23046875 160.90234375 C128.03291016 160.90556641 128.83535156 160.90878906 129.66210938 160.91210938 C130.49548828 160.92048828 131.32886719 160.92886719 132.1875 160.9375 C133.03248047 160.94201172 133.87746094 160.94652344 134.74804688 160.95117188 C136.83206155 160.96294597 138.91603977 160.9808811 141 161 C138.76766064 153.14832362 136.2430859 145.5296874 128.92382812 141.16601562 C121.20901209 137.69882633 113.15546559 135.20786619 105 133 C104.82395233 133.68090195 104.64790466 134.36180389 104.46652222 135.06333923 C102.78160279 141.42922032 100.81896623 147.59051836 98.5078125 153.75390625 C98.16962997 154.6682695 97.83144745 155.58263275 97.48301697 156.52470398 C96.75099588 158.50283675 96.01693941 160.48021729 95.28103638 162.45690918 C93.26217599 167.88040139 91.25866572 173.30956428 89.25390625 178.73828125 C88.83026291 179.88444916 88.40661957 181.03061707 87.97013855 182.21151733 C83.62374736 193.98649215 79.36067193 205.79114471 75.10233021 217.59814453 C71.44783892 227.72921015 67.77117059 237.85224412 64.09619141 247.97589111 C63.09500344 250.73791006 62.09744119 253.50119997 61.1015625 256.26513672 C59.60617618 260.41255116 58.08756037 264.55090729 56.5625 268.6875 C56.16877197 269.78932617 55.77504395 270.89115234 55.36938477 272.02636719 C52.9315201 278.55081654 50.38784788 284.69871772 43.94946289 288.07543945 C38.52339979 290.11533512 33.24833479 290.45939643 27.5 290.375 C26.70980469 290.38660156 25.91960937 290.39820313 25.10546875 290.41015625 C18.58174155 290.37812486 12.06925423 289.44650699 6.84375 285.28125 C6.4003125 284.6934375 5.956875 284.105625 5.5 283.5 C5.0359375 282.9121875 4.571875 282.324375 4.09375 281.71875 C1.18959706 277.15508109 1.48562243 272.19630385 2 267 C3.15650713 262.01025082 4.73409703 257.16822103 6.328125 252.3046875 C6.79063801 250.85700431 7.25181023 249.40889217 7.71174622 247.96038818 C8.69584235 244.87023126 9.68868568 241.7830845 10.68875122 238.69805908 C12.26681041 233.82971204 13.82548381 228.95530192 15.38061523 224.07958984 C16.9837941 219.05594981 18.58802465 214.03266435 20.19895935 209.01150513 C25.36000033 192.92184266 30.40466763 176.79676629 35.42759705 160.66355133 C37.23160742 154.87122084 39.03992483 149.08023246 40.84765625 143.2890625 C41.20951019 142.12941986 41.57136414 140.96977722 41.94418335 139.7749939 C44.94089676 130.17638569 47.96204925 120.58562987 51 111 C47.67611634 109.96515364 44.3417982 108.97546903 41 108 C40.20078125 107.74089844 39.4015625 107.48179687 38.578125 107.21484375 C37.45664063 106.89193359 37.45664063 106.89193359 36.3125 106.5625 C35.64863281 106.35753906 34.98476562 106.15257812 34.30078125 105.94140625 C31.74785923 105.79110289 31.74785923 105.79110289 29.24707031 107.97045898 C23.58395628 111.28241003 17.10817579 110.57491439 10.74609375 110.53125 C9.35799386 110.53394881 7.96989583 110.53783446 6.58180237 110.54284668 C3.68268712 110.54872165 0.78406713 110.54024323 -2.11499023 110.52148438 C-5.81951254 110.49867353 -9.52287683 110.51184247 -13.22735691 110.53577423 C-16.09027237 110.55026893 -18.95291585 110.54561004 -21.81583977 110.53526306 C-23.18130571 110.53260697 -24.54679687 110.53582603 -25.91223335 110.54518127 C-39.10027333 110.61573819 -39.10027333 110.61573819 -44 106 C-47.40263025 102.13755485 -49.10935406 99.79859937 -49.19287109 94.67724609 C-49.20893402 93.7822641 -49.22499695 92.8872821 -49.24154663 91.96517944 C-49.28610201 87.85521212 -49.32709423 83.74540668 -49.35009766 79.63525391 C-49.36661801 77.47238373 -49.39385579 75.30956727 -49.43212891 73.14697266 C-49.48713455 70.02217389 -49.50881187 66.89865646 -49.5234375 63.7734375 C-49.54610687 62.81480804 -49.56877625 61.85617859 -49.59213257 60.86849976 C-49.5720554 54.43054042 -48.33221233 49.8914402 -44 45 C-38.09012238 40.51641273 -32.19258372 40.49205907 -25 40.75 C-24.03449219 40.76804688 -23.06898437 40.78609375 -22.07421875 40.8046875 C-19.71570963 40.85139065 -17.3577183 40.92311788 -15 41 C-15 35.72 -15 30.44 -15 25 C-16.88227295 25.02618408 -18.7645459 25.05236816 -20.70385742 25.0793457 C-26.93031285 25.16004591 -33.1566443 25.21745667 -39.38347912 25.25906086 C-43.1580501 25.28512982 -46.93205414 25.32047629 -50.70629883 25.37719727 C-54.35030481 25.43161681 -57.99376631 25.46144086 -61.63814735 25.47438622 C-63.02685427 25.48360857 -64.41553215 25.50161853 -65.80400658 25.52865028 C-67.75209744 25.56506071 -69.70073891 25.56704339 -71.64916992 25.56762695 C-72.7572551 25.57873001 -73.86534027 25.58983307 -75.00700378 25.60127258 C-78.96834772 24.80546553 -80.46461343 23.06603419 -83 20 C-83.6640625 17.9375 -83.6640625 17.9375 -83.625 16 C-83.63789062 15.360625 -83.65078125 14.72125 -83.6640625 14.0625 C-82.60499208 10.77315187 -80.61054477 9.20018538 -78 7 C-75.00700378 6.39872742 -75.00700378 6.39872742 -71.64916992 6.43237305 C-70.3882402 6.4327507 -69.12731049 6.43312836 -67.82817078 6.43351746 C-66.46225994 6.45904676 -65.09635931 6.48512667 -63.73046875 6.51171875 C-62.32515218 6.52105141 -60.91981928 6.52816539 -59.51448059 6.53315735 C-55.82661541 6.55219228 -52.13974449 6.60126029 -48.45227051 6.65667725 C-44.68511402 6.70794696 -40.91779589 6.7306877 -37.15039062 6.75585938 C-29.7664752 6.80938463 -22.38337724 6.89465218 -15 7 C-14.86207031 6.21109375 -14.72414063 5.4221875 -14.58203125 4.609375 C-13.9311835 1.6914804 -13.37351987 0.75816287 -11 -1 C-7.1155938 -2.80347431 -3.82151554 -1.52860622 0 0 Z M134.99609375 41.5859375 C129.71763936 47.96966512 126.33758205 55.10050439 123.2734375 62.75 C121.70842168 65.51518133 120.96922643 65.91823684 118 67 C115.33666686 67.20856217 112.77442503 67.31110247 110.11035156 67.31884766 C109.31972824 67.32889328 108.52910492 67.3389389 107.71452332 67.34928894 C105.10656446 67.38012926 102.49870832 67.39715836 99.890625 67.4140625 C98.08029293 67.43277347 96.26996958 67.45234683 94.45965576 67.4727478 C89.69876245 67.52408249 84.93784086 67.56370108 80.17681885 67.60089111 C75.31702674 67.64092235 70.45735241 67.69201872 65.59765625 67.7421875 C56.06517866 67.83896271 46.53265251 67.92233963 37 68 C37 74.27 37 80.54 37 87 C39.22584705 87.85473506 41.45170879 88.70943186 43.67762756 89.5639801 C45.69929302 90.34081624 47.7205495 91.11871736 49.74143982 91.89756775 C55.5227434 94.12425267 61.31019506 96.33230009 67.10986328 98.51074219 C78.56900162 102.83695793 89.84772232 107.27597099 100.90234375 112.55859375 C138.26424517 130.03556473 184.99330008 135.09797245 224.65974426 121.31401062 C232.6021196 118.34567299 240.3034048 114.84960136 247.9506073 111.19526672 C259.20180731 105.8385007 270.84229377 101.53363233 282.50042725 97.15466309 C288.12734429 95.0344817 293.73686103 92.86942968 299.34765625 90.70703125 C301.23305033 89.98255815 303.11853705 89.25832606 305.00415039 88.53442383 C306.32278076 88.02806396 307.64141113 87.5217041 309 87 C309 80.73 309 74.46 309 68 C306.57245361 67.98541748 304.14490723 67.97083496 301.64379883 67.95581055 C293.62100277 67.90546174 285.59840074 67.83886612 277.57579517 67.76428509 C272.71192394 67.71956756 267.84813673 67.68031444 262.98413086 67.65356445 C258.28962246 67.62754532 253.59543718 67.58715269 248.90112877 67.53681374 C247.11063342 67.52013563 245.32008218 67.50862723 243.52952003 67.50238609 C241.02039382 67.49275522 238.51209601 67.46470872 236.00317383 67.43237305 C234.89402367 67.43452568 234.89402367 67.43452568 233.76246643 67.4367218 C229.35260105 67.3564052 226.494424 66.74054373 223 64 C221.62890625 61.3984375 221.62890625 61.3984375 220.5625 58.375 C215.42405259 45.1299337 206.79016356 35.3455075 194 29 C173.43842386 20.52373029 150.26501417 25.30997598 134.99609375 41.5859375 Z M-31 59 C-31 69.89 -31 80.78 -31 92 C-14.5 92 2 92 19 92 C19 81.11 19 70.22 19 59 C2.5 59 -14 59 -31 59 Z M327 59 C327 69.89 327 80.78 327 92 C343.5 92 360 92 377 92 C377 81.11 377 70.22 377 59 C360.5 59 344 59 327 59 Z M68 118 C58.24717766 148.27593704 48.65319971 178.59806694 39.18945312 208.96533203 C38.35553916 211.64097247 37.52154383 214.31658754 36.6875 216.9921875 C36.48497116 217.64199207 36.28244232 218.29179665 36.07377625 218.96129227 C33.42361975 227.46242181 30.75624421 235.95788459 28.0625 244.4453125 C27.77167542 245.3621582 27.48085083 246.27900391 27.18121338 247.22363281 C25.87466341 251.34021446 24.56456428 255.45561896 23.24902344 259.56933594 C22.80657071 260.96026422 22.36418297 262.35121318 21.921875 263.7421875 C21.54643555 264.9163623 21.17099609 266.09053711 20.78417969 267.30029297 C19.90702021 269.85155444 19.90702021 269.85155444 20 272 C24.95 272 29.9 272 35 272 C38.32244388 264.78776089 41.1195306 257.45572072 43.82421875 249.9921875 C44.28759385 248.72050038 44.75123906 247.44891165 45.21513367 246.17741394 C46.45333068 242.78109731 47.6875678 239.38335439 48.92101288 235.9853096 C49.9497308 233.15302027 50.98094973 230.32164452 52.01223373 227.49028873 C57.01933209 213.74342076 62.00820147 199.9899744 66.98046875 186.23046875 C67.35772598 185.18657486 67.73498322 184.14268097 68.12367249 183.06715393 C69.9017588 178.14547209 71.67749141 173.222959 73.44946289 168.29907227 C76.26555759 160.48297356 79.09282574 152.67519374 82.078125 144.921875 C82.51850098 143.77452881 82.95887695 142.62718262 83.41259766 141.44506836 C84.1829085 139.45476258 84.96275901 137.46810248 85.75537109 135.48657227 C86.07586426 134.66213623 86.39635742 133.8377002 86.7265625 132.98828125 C87.00064941 132.30290283 87.27473633 131.61752441 87.55712891 130.91137695 C88.11197064 128.51674856 87.99762604 127.24979645 87 125 C85.23470136 123.80973761 85.23470136 123.80973761 83 123.078125 C82.195625 122.77519531 81.39125 122.47226563 80.5625 122.16015625 C79.2940625 121.70962891 79.2940625 121.70962891 78 121.25 C76.7315625 120.77626953 76.7315625 120.77626953 75.4375 120.29296875 C71.81249036 118.7184741 71.81249036 118.7184741 68 118 Z M268 121.3125 C266.7315625 121.7755957 266.7315625 121.7755957 265.4375 122.24804688 C264.633125 122.55419922 263.82875 122.86035156 263 123.17578125 C261.88625 123.59210815 261.88625 123.59210815 260.75 124.0168457 C258.64629435 124.94077118 258.64629435 124.94077118 258 128 C258.59732163 130.51677772 258.59732163 130.51677772 259.66455078 133.31103516 C260.0580925 134.41024292 260.45163422 135.50945068 260.85710144 136.64196777 C261.29871109 137.84550903 261.74032074 139.04905029 262.1953125 140.2890625 C262.65585622 141.5638937 263.11562154 142.83900635 263.57466125 144.11437988 C264.82069035 147.56865189 266.07833364 151.01859136 267.33826828 154.46781158 C268.38841147 157.34726423 269.43172213 160.22917032 270.47488308 163.11115837 C279.74037779 188.70860275 289.14215137 214.25710105 298.60113525 239.78359985 C300.5324817 245.00212865 302.44790073 250.22576872 304.33642578 255.45996094 C304.89246239 256.99981155 304.89246239 256.99981155 305.45973206 258.57077026 C306.16065676 260.51558546 306.85913244 262.46128558 307.55479431 264.4079895 C307.86292557 265.26319183 308.17105682 266.11839417 308.48852539 266.99951172 C308.75758194 267.75126678 309.02663849 268.50302185 309.30384827 269.27755737 C309.86937746 270.99958446 309.86937746 270.99958446 311 272 C313.53049402 272.07313567 316.03304837 272.09247527 318.5625 272.0625 C319.27341797 272.05798828 319.98433594 272.05347656 320.71679688 272.04882812 C322.47790013 272.03700864 324.23896036 272.01907263 326 272 C323.78649016 263.577026 321.25896714 255.27090601 318.6328125 246.96875 C318.20074254 245.5972295 317.76887369 244.22564563 317.33718872 242.85400391 C316.4154725 239.92662649 315.4924973 236.9996504 314.56848145 234.07299805 C313.10840424 229.44839232 311.65106193 224.82292791 310.19433594 220.19726562 C309.94805199 219.41524025 309.70176804 218.63321487 309.44802094 217.82749176 C308.94551372 216.23187486 308.44301387 214.63625565 307.94052124 213.04063416 C307.17498644 210.61007422 306.40917447 208.17960175 305.64331055 205.74914551 C302.06706375 194.3984676 298.50231783 183.04422163 294.9453125 171.6875 C294.70301533 170.91395676 294.46071815 170.14041351 294.21107864 169.34342957 C292.09703967 162.59400935 289.98369337 155.8443724 287.87115479 149.09448242 C286.78753668 145.6321969 285.70342387 142.17006662 284.61898422 138.70803833 C284.03440254 136.84121485 283.45043388 134.97419944 282.8664856 133.10717773 C282.51641449 131.98964111 282.16634338 130.87210449 281.80566406 129.72070312 C281.50339905 128.75491333 281.20113403 127.78912354 280.88970947 126.79406738 C279.95331802 123.85339865 278.98222127 120.9256476 278 118 C274.7367506 118 271.01493665 120.17040891 268 121.3125 Z M154 144 C155.48897285 148.46691855 156.86931765 151.85400102 159.125 155.875 C160.07375 157.56625 161.0225 159.2575 162 161 C169.26 161 176.52 161 184 161 C185.32 158.56625 186.64 156.1325 188 153.625 C188.41765625 152.86010254 188.8353125 152.09520508 189.265625 151.30712891 C191.29512768 147.8511464 191.29512768 147.8511464 192 144 C179.46 144 166.92 144 154 144 Z M124.50827026 180.90437317 C121.80512489 184.66018809 121.86430376 187.03922285 121.83886719 191.6652832 C121.83390228 192.3500473 121.82893738 193.0348114 121.82382202 193.74032593 C121.8091923 196.01048786 121.80239652 198.28057988 121.796875 200.55078125 C121.7911235 202.12778221 121.78536576 203.70478314 121.77960205 205.28178406 C121.76908927 208.59142381 121.76324866 211.90103925 121.75976562 215.21069336 C121.75428519 219.44767524 121.73026823 223.68433505 121.70179367 227.92121601 C121.68315007 231.18034293 121.67796074 234.43939261 121.67642975 237.69856834 C121.67340575 239.26025335 121.66538572 240.82193708 121.65224457 242.38356972 C121.63515014 244.57147158 121.63707232 246.75859127 121.64355469 248.9465332 C121.63990906 250.19070511 121.63626343 251.43487701 121.63250732 252.7167511 C122.0342924 256.30637473 122.82410145 258.14602231 125 261 C128.85789597 263.57193065 132.04870128 263.29545529 136.52294922 263.29052734 C137.39317719 263.29724457 138.26340515 263.30396179 139.16000366 263.31088257 C142.04162276 263.32990651 144.92300948 263.33378902 147.8046875 263.3359375 C149.80624488 263.34236252 151.80780131 263.34909066 153.80935669 263.35610962 C158.00752948 263.36809349 162.20561991 263.37178932 166.40380859 263.37060547 C171.78314052 263.37040225 177.1619443 263.39770232 182.54115105 263.43214989 C186.67614161 263.45438884 190.81100449 263.45844393 194.94604874 263.45738602 C196.92918849 263.45974659 198.91233151 263.46859569 200.89541245 263.48405075 C203.67007149 263.50364927 206.44358417 263.49789685 209.21826172 263.48583984 C210.03713867 263.49707886 210.85601562 263.50831787 211.69970703 263.51989746 C215.62219191 263.47658984 217.56888778 263.26603691 220.98635864 261.15713501 C224.44198251 257.45526069 224.13433504 254.08609368 224.16113281 249.22119141 C224.16609772 248.53628128 224.17106262 247.85137115 224.17617798 247.14570618 C224.19077715 244.88098138 224.19759766 242.61632661 224.203125 240.3515625 C224.20887809 238.77599079 224.21463581 237.20041909 224.22039795 235.62484741 C224.2309014 232.32118402 224.23674842 229.01754492 224.24023438 225.71386719 C224.2457192 221.4847611 224.26974952 217.25597695 224.29820633 213.02697182 C224.31684765 209.7721361 224.32203909 206.51737772 224.32357025 203.26249313 C224.3265937 201.70359918 224.3346119 200.14470649 224.34775543 198.58586502 C224.3648485 196.40286129 224.36292826 194.22064152 224.35644531 192.03759766 C224.36009094 190.79644196 224.36373657 189.55528625 224.36749268 188.27651978 C223.96846444 184.71883283 223.14279441 182.83792348 221 180 C217.69906499 178.34953249 214.02071101 178.83452346 210.39111328 178.82299805 C209.49991791 178.81642685 208.60872253 178.80985565 207.69052124 178.80308533 C204.7337842 178.78333267 201.77709796 178.77168636 198.8203125 178.76171875 C197.81214352 178.75764322 196.80397453 178.7535677 195.76525497 178.74936867 C190.43090773 178.72850115 185.09658628 178.71420146 179.76220703 178.70483398 C174.24490075 178.69375832 168.72799654 178.65934694 163.2108326 178.61966228 C158.9746728 178.59355518 154.73860974 178.58514749 150.50237656 178.58155251 C148.46816156 178.57667252 146.43395129 178.56501861 144.39981461 178.54651451 C141.55544113 178.522245 138.71212044 178.52306554 135.86767578 178.5300293 C135.02493103 178.51721924 134.18218628 178.50440918 133.31390381 178.49121094 C129.63400048 178.52410939 127.47946065 178.63355897 124.50827026 180.90437317 Z " fill="#000000" transform="translate(83,112)"/>
<path d="M0 0 C7.51542717 4.38675815 11.06212777 9.90122705 13.7734375 18.03515625 C14.64545531 26.62667596 13.4169056 33.99035426 8.30078125 41.07421875 C3.41882236 46.49861752 -2.55480719 49.3303969 -9.73828125 50.4140625 C-16.96827646 50.7659147 -23.43343193 48.83467518 -29.26953125 44.52734375 C-34.54340339 39.69202388 -37.68295828 34.23267747 -38.60546875 27.109375 C-38.9433437 18.53171092 -36.72171036 12.85126475 -32.1015625 5.78515625 C-23.41597212 -2.52279977 -11.20057718 -5.08043058 0 0 Z M-18.1640625 18.09765625 C-20.54698234 20.92354534 -20.54698234 20.92354534 -20.3515625 24.59765625 C-19.01828439 28.67156157 -17.99786368 30.02379562 -14.2265625 32.03515625 C-10.29314683 32.11543004 -8.75612675 31.49682765 -5.7890625 28.91015625 C-3.93806487 26.04968061 -3.93806487 26.04968061 -4.2265625 22.41015625 C-4.96290138 19.06697339 -4.96290138 19.06697339 -6.9140625 17.09765625 C-11.42621168 15.02450663 -14.09736626 15.24231634 -18.1640625 18.09765625 Z " fill="#000000" transform="translate(268.2265625,308.96484375)"/>
</svg>
